<?xml version="1.0" encoding="UTF-8" standalone="no"?>
<!DOCTYPE svg PUBLIC "-//W3C//DTD SVG 1.1//EN"
 "http://www.w3.org/Graphics/SVG/1.1/DTD/svg11.dtd">
<!-- Generated by graphviz version 2.38.0 (20140413.2041)
 -->
<!-- Title: models_diagram Pages: 1 -->
<svg width="1635pt" height="246pt"
 viewBox="0.00 0.00 1634.84 246.00" xmlns="http://www.w3.org/2000/svg" xmlns:xlink="http://www.w3.org/1999/xlink">
<g id="graph0" class="graph" transform="scale(1 1) rotate(0) translate(4 242)">
<title>models_diagram</title>
<polygon fill="none" stroke="none" points="-4,4 -4,-242 1630.84,-242 1630.84,4 -4,4"/>
<!-- _diagram_info -->
<g id="node1" class="node"><title>_diagram_info</title>
<text text-anchor="start" x="8" y="-223.6" font-family="Times,serif" font-size="13.00">Models diagram</text>
<text text-anchor="start" x="8" y="-209.6" font-family="Times,serif" font-size="13.00">Date: Mar 08 2016 &#45; 13:02</text>
<text text-anchor="start" x="8" y="-195.6" font-family="Times,serif" font-size="13.00">Migration version: 20151229071056</text>
<text text-anchor="start" x="8" y="-181.6" font-family="Times,serif" font-size="13.00">Generated by RailRoady 1.4.2</text>
<text text-anchor="start" x="8" y="-167.6" font-family="Times,serif" font-size="13.00">http://railroady.prestonlee.com</text>
</g>
<!-- Settings -->
<g id="node2" class="node"><title>Settings</title>
<polygon fill="none" stroke="black" points="292,-217 232,-217 232,-181 292,-181 292,-217"/>
<text text-anchor="middle" x="262" y="-195.3" font-family="Times,serif" font-size="14.00">Settings</text>
</g>
<!-- Merkmalklasse -->
<g id="node3" class="node"><title>Merkmalklasse</title>
<ellipse fill="none" stroke="black" cx="212" cy="-91" rx="65.7887" ry="18"/>
<text text-anchor="middle" x="212" y="-87.3" font-family="Times,serif" font-size="14.00">Merkmalklasse</text>
</g>
<!-- Merkmal -->
<g id="node4" class="node"><title>Merkmal</title>
<ellipse fill="none" stroke="black" cx="374" cy="-18" rx="44.393" ry="18"/>
<text text-anchor="middle" x="374" y="-14.3" font-family="Times,serif" font-size="14.00">Merkmal</text>
</g>
<!-- Merkmalklasse&#45;&gt;Merkmal -->
<g id="edge1" class="edge"><title>Merkmalklasse&#45;&gt;Merkmal</title>
<path fill="none" stroke="#ab77b4" d="M251.622,-71.9869C264.479,-66.191 278.824,-59.776 292,-54 305.917,-47.8992 321.219,-41.3304 334.797,-35.5497"/>
<ellipse fill="none" stroke="#ab77b4" cx="247.89" cy="-73.6722" rx="4.00002" ry="4.00002"/>
<polygon fill="#ab77b4" stroke="#ab77b4" points="335.131,-35.4079 346.095,-35.6395 339.733,-33.4528 344.335,-31.4978 344.335,-31.4978 344.335,-31.4978 339.733,-33.4528 342.576,-27.356 335.131,-35.4079 335.131,-35.4079"/>
</g>
<!-- LineState -->
<g id="node5" class="node"><title>LineState</title>
<ellipse fill="none" stroke="black" cx="594" cy="-199" rx="44.393" ry="18"/>
<text text-anchor="middle" x="594" y="-195.3" font-family="Times,serif" font-size="14.00">LineState</text>
</g>
<!-- Line -->
<g id="node16" class="node"><title>Line</title>
<ellipse fill="none" stroke="black" cx="617" cy="-91" rx="27" ry="18"/>
<text text-anchor="middle" x="617" y="-87.3" font-family="Times,serif" font-size="14.00">Line</text>
</g>
<!-- LineState&#45;&gt;Line -->
<g id="edge2" class="edge"><title>LineState&#45;&gt;Line</title>
<path fill="none" stroke="#a7f412" d="M599.423,-173.008C602.935,-156.823 607.507,-135.748 611.109,-119.152"/>
<ellipse fill="none" stroke="#a7f412" cx="598.544" cy="-177.06" rx="4.00001" ry="4.00001"/>
<polygon fill="#a7f412" stroke="#a7f412" points="611.193,-118.761 617.711,-109.943 612.254,-113.875 613.314,-108.988 613.314,-108.988 613.314,-108.988 612.254,-113.875 608.916,-108.034 611.193,-118.761 611.193,-118.761"/>
</g>
<!-- FrameworkContract -->
<g id="node6" class="node"><title>FrameworkContract</title>
<ellipse fill="none" stroke="black" cx="738" cy="-199" rx="81.7856" ry="18"/>
<text text-anchor="middle" x="738" y="-195.3" font-family="Times,serif" font-size="14.00">FrameworkContract</text>
</g>
<!-- FrameworkContract&#45;&gt;Line -->
<g id="edge3" class="edge"><title>FrameworkContract&#45;&gt;Line</title>
<path fill="none" stroke="#cd515f" d="M712.921,-176.03C691.616,-157.366 661.264,-130.777 640.44,-112.534"/>
<ellipse fill="none" stroke="#cd515f" cx="716.085" cy="-178.802" rx="4.00002" ry="4.00002"/>
<polygon fill="#cd515f" stroke="#cd515f" points="640.217,-112.338 635.66,-102.364 636.456,-109.044 632.695,-105.749 632.695,-105.749 632.695,-105.749 636.456,-109.044 629.729,-109.134 640.217,-112.338 640.217,-112.338"/>
</g>
<!-- OperatingSystem -->
<g id="node7" class="node"><title>OperatingSystem</title>
<polygon fill="none" stroke="black" points="1074.5,-217 963.5,-217 963.5,-181 1074.5,-181 1074.5,-217"/>
<text text-anchor="middle" x="1019" y="-195.3" font-family="Times,serif" font-size="14.00">OperatingSystem</text>
</g>
<!-- AccessType -->
<g id="node8" class="node"><title>AccessType</title>
<ellipse fill="none" stroke="black" cx="892" cy="-199" rx="53.8905" ry="18"/>
<text text-anchor="middle" x="892" y="-195.3" font-family="Times,serif" font-size="14.00">AccessType</text>
</g>
<!-- AccessType&#45;&gt;Line -->
<g id="edge4" class="edge"><title>AccessType&#45;&gt;Line</title>
<path fill="none" stroke="#96ac58" d="M862.493,-178.263C852.178,-171.893 840.338,-165.153 829,-160 769.022,-132.741 694.932,-111.636 652.11,-100.575"/>
<ellipse fill="none" stroke="#96ac58" cx="865.981" cy="-180.459" rx="4.00002" ry="4.00002"/>
<polygon fill="#96ac58" stroke="#96ac58" points="651.872,-100.514 643.292,-93.6846 647.026,-99.2796 642.181,-98.0453 642.181,-98.0453 642.181,-98.0453 647.026,-99.2796 641.07,-102.406 651.872,-100.514 651.872,-100.514"/>
</g>
<!-- Address -->
<g id="node9" class="node"><title>Address</title>
<ellipse fill="none" stroke="black" cx="374" cy="-91" rx="39.7935" ry="18"/>
<text text-anchor="middle" x="374" y="-87.3" font-family="Times,serif" font-size="14.00">Address</text>
</g>
<!-- OrgUnit -->
<g id="node10" class="node"><title>OrgUnit</title>
<ellipse fill="none" stroke="black" cx="350" cy="-199" rx="40.0939" ry="18"/>
<text text-anchor="middle" x="350" y="-195.3" font-family="Times,serif" font-size="14.00">OrgUnit</text>
</g>
<!-- OrgUnit&#45;&gt;Merkmal -->
<g id="edge5" class="edge"><title>OrgUnit&#45;&gt;Merkmal</title>
<path fill="none" stroke="#13cce7" d="M337.382,-173.879C325.716,-148.191 311.997,-106.679 325,-73 329.631,-61.0057 338.299,-50.0291 347.073,-41.1506"/>
<ellipse fill="none" stroke="#13cce7" cx="339.192" cy="-177.702" rx="4.00002" ry="4.00002"/>
<polygon fill="#13cce7" stroke="#13cce7" points="347.131,-41.0961 357.481,-37.4728 350.756,-37.6529 354.382,-34.2098 354.382,-34.2098 354.382,-34.2098 350.756,-37.6529 351.283,-30.9468 347.131,-41.0961 347.131,-41.0961"/>
</g>
<!-- OrgUnit&#45;&gt;Address -->
<g id="edge6" class="edge"><title>OrgUnit&#45;&gt;Address</title>
<path fill="none" stroke="#28a8a2" d="M355.659,-173.008C359.323,-156.823 364.095,-135.748 367.852,-119.152"/>
<ellipse fill="none" stroke="#28a8a2" cx="354.739" cy="-177.068" rx="4.00001" ry="4.00001"/>
<polygon fill="#28a8a2" stroke="#28a8a2" points="367.945,-118.742 374.542,-109.982 369.049,-113.865 370.154,-108.988 370.154,-108.988 370.154,-108.988 369.049,-113.865 365.765,-107.995 367.945,-118.742 367.945,-118.742"/>
</g>
<!-- Ability -->
<g id="node11" class="node"><title>Ability</title>
<polygon fill="none" stroke="black" points="1147.5,-217 1092.5,-217 1092.5,-181 1147.5,-181 1147.5,-217"/>
<text text-anchor="middle" x="1120" y="-195.3" font-family="Times,serif" font-size="14.00">Ability</text>
</g>
<!-- Wobauth::User -->
<g id="node12" class="node"><title>Wobauth::User</title>
<ellipse fill="none" stroke="black" cx="1230" cy="-199" rx="64.9885" ry="18"/>
<text text-anchor="middle" x="1230" y="-195.3" font-family="Times,serif" font-size="14.00">Wobauth::User</text>
</g>
<!-- Wobauth::Authority -->
<g id="node18" class="node"><title>Wobauth::Authority</title>
<ellipse fill="none" stroke="black" cx="1031" cy="-91" rx="82.5854" ry="18"/>
<text text-anchor="middle" x="1031" y="-87.3" font-family="Times,serif" font-size="14.00">Wobauth::Authority</text>
</g>
<!-- Wobauth::User&#45;&gt;Wobauth::Authority -->
<g id="edge7" class="edge"><title>Wobauth::User&#45;&gt;Wobauth::Authority</title>
<path fill="none" stroke="#cdceb6" d="M1194.16,-178.91C1159.16,-160.265 1106.03,-131.967 1069.99,-112.767"/>
<ellipse fill="none" stroke="#cdceb6" cx="1197.96" cy="-180.932" rx="4.00002" ry="4.00002"/>
<polygon fill="#cdceb6" stroke="#cdceb6" points="1069.58,-112.553 1062.87,-103.88 1065.17,-110.202 1060.76,-107.851 1060.76,-107.851 1060.76,-107.851 1065.17,-110.202 1058.64,-111.823 1069.58,-112.553 1069.58,-112.553"/>
</g>
<!-- Wobauth::Role -->
<g id="node19" class="node"><title>Wobauth::Role</title>
<ellipse fill="none" stroke="black" cx="1197" cy="-91" rx="64.9885" ry="18"/>
<text text-anchor="middle" x="1197" y="-87.3" font-family="Times,serif" font-size="14.00">Wobauth::Role</text>
</g>
<!-- Wobauth::User&#45;&gt;Wobauth::Role -->
<g id="edge8" class="edge"><title>Wobauth::User&#45;&gt;Wobauth::Role</title>
<path fill="none" stroke="#35d381" d="M1220.66,-171.435C1217.48,-162.158 1213.99,-151.652 1211,-142 1208.69,-134.54 1206.34,-126.404 1204.24,-118.903"/>
<polygon fill="#35d381" stroke="#35d381" points="1220.67,-171.47 1219.68,-182.392 1222.3,-176.196 1223.94,-180.922 1223.94,-180.922 1223.94,-180.922 1222.3,-176.196 1228.19,-179.452 1220.67,-171.47 1220.67,-171.47"/>
<polygon fill="#35d381" stroke="#35d381" points="1204.23,-118.832 1205.9,-107.995 1202.9,-114.012 1201.57,-109.192 1201.57,-109.192 1201.57,-109.192 1202.9,-114.012 1197.23,-110.388 1204.23,-118.832 1204.23,-118.832"/>
</g>
<!-- Wobauth::User&#45;&gt;Wobauth::Role -->
<g id="edge10" class="edge"><title>Wobauth::User&#45;&gt;Wobauth::Role</title>
<path fill="none" stroke="#4a0ee8" d="M1221.62,-170.875C1217.53,-157.638 1212.52,-141.483 1208,-127 1207.17,-124.355 1206.31,-121.598 1205.45,-118.844"/>
<polygon fill="#4a0ee8" stroke="#4a0ee8" points="1221.73,-171.224 1220.39,-182.107 1223.21,-176.001 1224.68,-180.778 1224.68,-180.778 1224.68,-180.778 1223.21,-176.001 1228.98,-179.448 1221.73,-171.224 1221.73,-171.224"/>
<polygon fill="#4a0ee8" stroke="#4a0ee8" points="1205.38,-118.626 1206.68,-107.737 1203.88,-113.856 1202.38,-109.086 1202.38,-109.086 1202.38,-109.086 1203.88,-113.856 1198.09,-110.434 1205.38,-118.626 1205.38,-118.626"/>
<text text-anchor="middle" x="1244.5" y="-130.8" font-family="Times,serif" font-size="14.00">group_roles</text>
</g>
<!-- Wobauth::Membership -->
<g id="node20" class="node"><title>Wobauth::Membership</title>
<ellipse fill="none" stroke="black" cx="1374" cy="-91" rx="93.6835" ry="18"/>
<text text-anchor="middle" x="1374" y="-87.3" font-family="Times,serif" font-size="14.00">Wobauth::Membership</text>
</g>
<!-- Wobauth::User&#45;&gt;Wobauth::Membership -->
<g id="edge9" class="edge"><title>Wobauth::User&#45;&gt;Wobauth::Membership</title>
<path fill="none" stroke="#158c5f" d="M1258.5,-177.021C1283,-158.986 1318.25,-133.038 1343.35,-114.559"/>
<ellipse fill="none" stroke="#158c5f" cx="1255.09" cy="-179.53" rx="4.00002" ry="4.00002"/>
<polygon fill="#158c5f" stroke="#158c5f" points="1343.39,-114.529 1354.12,-112.225 1347.42,-111.565 1351.45,-108.601 1351.45,-108.601 1351.45,-108.601 1347.42,-111.565 1348.78,-104.977 1343.39,-114.529 1343.39,-114.529"/>
</g>
<!-- Wobauth::Group -->
<g id="node21" class="node"><title>Wobauth::Group</title>
<ellipse fill="none" stroke="black" cx="1556" cy="-91" rx="70.6878" ry="18"/>
<text text-anchor="middle" x="1556" y="-87.3" font-family="Times,serif" font-size="14.00">Wobauth::Group</text>
</g>
<!-- Wobauth::User&#45;&gt;Wobauth::Group -->
<g id="edge11" class="edge"><title>Wobauth::User&#45;&gt;Wobauth::Group</title>
<path fill="none" stroke="#c14206" d="M1265.93,-177.625C1277.8,-171.414 1291.25,-164.932 1304,-160 1338.95,-146.484 1433.94,-122.047 1496.79,-106.443"/>
<polygon fill="#c14206" stroke="#c14206" points="1265.6,-177.8 1254.66,-178.544 1261.19,-180.157 1256.78,-182.513 1256.78,-182.513 1256.78,-182.513 1261.19,-180.157 1258.9,-186.482 1265.6,-177.8 1265.6,-177.8"/>
<polygon fill="#c14206" stroke="#c14206" points="1496.88,-106.421 1507.67,-108.386 1501.73,-105.22 1506.58,-104.018 1506.58,-104.018 1506.58,-104.018 1501.73,-105.22 1505.5,-99.6499 1496.88,-106.421 1496.88,-106.421"/>
</g>
<!-- Location -->
<g id="node13" class="node"><title>Location</title>
<ellipse fill="none" stroke="black" cx="467" cy="-199" rx="42.4939" ry="18"/>
<text text-anchor="middle" x="467" y="-195.3" font-family="Times,serif" font-size="14.00">Location</text>
</g>
<!-- Location&#45;&gt;Merkmal -->
<g id="edge12" class="edge"><title>Location&#45;&gt;Merkmal</title>
<path fill="none" stroke="#0af06c" d="M461.332,-172.969C454.703,-146.782 442.137,-105.095 423,-73 416.314,-61.7871 407.063,-50.8452 398.399,-41.7756"/>
<ellipse fill="none" stroke="#0af06c" cx="462.323" cy="-177.01" rx="4.00001" ry="4.00001"/>
<polygon fill="#0af06c" stroke="#0af06c" points="398.363,-41.7396 394.526,-31.4669 394.846,-38.1861 391.328,-34.6327 391.328,-34.6327 391.328,-34.6327 394.846,-38.1861 388.13,-37.7984 398.363,-41.7396 398.363,-41.7396"/>
</g>
<!-- Location&#45;&gt;Address -->
<g id="edge13" class="edge"><title>Location&#45;&gt;Address</title>
<path fill="none" stroke="#5c1830" d="M447.397,-175.656C431.949,-158.05 410.467,-133.564 394.734,-115.633"/>
<ellipse fill="none" stroke="#5c1830" cx="450.237" cy="-178.894" rx="4.00002" ry="4.00002"/>
<polygon fill="#5c1830" stroke="#5c1830" points="394.548,-115.42 391.336,-104.936 391.25,-111.662 387.953,-107.903 387.953,-107.903 387.953,-107.903 391.25,-111.662 384.57,-110.871 394.548,-115.42 394.548,-115.42"/>
</g>
<!-- Network -->
<g id="node14" class="node"><title>Network</title>
<ellipse fill="none" stroke="black" cx="512" cy="-91" rx="41.6928" ry="18"/>
<text text-anchor="middle" x="512" y="-87.3" font-family="Times,serif" font-size="14.00">Network</text>
</g>
<!-- Location&#45;&gt;Network -->
<g id="edge14" class="edge"><title>Location&#45;&gt;Network</title>
<path fill="none" stroke="#8721f3" d="M468.735,-172.601C470.481,-158.573 473.982,-141.172 481,-127 482.945,-123.072 485.449,-119.244 488.189,-115.648"/>
<ellipse fill="none" stroke="#8721f3" cx="468.282" cy="-176.863" rx="4" ry="4"/>
<polygon fill="#8721f3" stroke="#8721f3" points="488.411,-115.385 498.3,-110.645 491.636,-111.564 494.861,-107.742 494.861,-107.742 494.861,-107.742 491.636,-111.564 491.422,-104.84 488.411,-115.385 488.411,-115.385"/>
</g>
<!-- Location&#45;&gt;Line -->
<g id="edge15" class="edge"><title>Location&#45;&gt;Line</title>
<path fill="none" stroke="#167170" d="M473.368,-172.829C478.461,-157.549 487.105,-138.784 501,-127 522.883,-108.441 535.536,-117.309 563,-109 569.637,-106.992 576.716,-104.8 583.491,-102.678"/>
<ellipse fill="none" stroke="#167170" cx="472.066" cy="-177.068" rx="4.00001" ry="4.00001"/>
<polygon fill="#167170" stroke="#167170" points="583.573,-102.652 594.463,-103.939 588.342,-101.15 593.111,-99.6473 593.111,-99.6473 593.111,-99.6473 588.342,-101.15 591.759,-95.3552 583.573,-102.652 583.573,-102.652"/>
<text text-anchor="middle" x="520.5" y="-130.8" font-family="Times,serif" font-size="14.00">lines_a</text>
</g>
<!-- Location&#45;&gt;Line -->
<g id="edge16" class="edge"><title>Location&#45;&gt;Line</title>
<path fill="none" stroke="#5e6ff5" d="M493.031,-178.071C512.165,-163.589 538.918,-143.686 563,-127 571.519,-121.097 580.956,-114.876 589.526,-109.342"/>
<ellipse fill="none" stroke="#5e6ff5" cx="489.785" cy="-180.535" rx="4.00002" ry="4.00002"/>
<polygon fill="#5e6ff5" stroke="#5e6ff5" points="589.649,-109.263 600.497,-107.656 593.859,-106.565 598.068,-103.867 598.068,-103.867 598.068,-103.867 593.859,-106.565 595.64,-100.079 589.649,-109.263 589.649,-109.263"/>
<text text-anchor="middle" x="583" y="-130.8" font-family="Times,serif" font-size="14.00">lines_b</text>
</g>
<!-- Network&#45;&gt;Merkmal -->
<g id="edge17" class="edge"><title>Network&#45;&gt;Merkmal</title>
<path fill="none" stroke="#aabfac" d="M484.158,-70.797C475.339,-65.0717 465.428,-58.997 456,-54 442.904,-47.0587 428.132,-40.4131 414.77,-34.8133"/>
<ellipse fill="none" stroke="#aabfac" cx="487.628" cy="-73.0846" rx="4.00002" ry="4.00002"/>
<polygon fill="#aabfac" stroke="#aabfac" points="414.582,-34.736 407.046,-26.7697 409.958,-32.8337 405.334,-30.9313 405.334,-30.9313 405.334,-30.9313 409.958,-32.8337 403.622,-35.0929 414.582,-34.736 414.582,-34.736"/>
</g>
<!-- Ipaddress -->
<g id="node15" class="node"><title>Ipaddress</title>
<polygon fill="none" stroke="black" points="1381,-217 1313,-217 1313,-181 1381,-181 1381,-217"/>
<text text-anchor="middle" x="1347" y="-195.3" font-family="Times,serif" font-size="14.00">Ipaddress</text>
</g>
<!-- Host -->
<g id="node17" class="node"><title>Host</title>
<polygon fill="none" stroke="black" points="1453,-217 1399,-217 1399,-181 1453,-181 1453,-217"/>
<text text-anchor="middle" x="1426" y="-195.3" font-family="Times,serif" font-size="14.00">Host</text>
</g>
</g>
</svg>
