<?xml version="1.0" encoding="UTF-8" standalone="no"?>
<!DOCTYPE svg PUBLIC "-//W3C//DTD SVG 1.1//EN"
 "http://www.w3.org/Graphics/SVG/1.1/DTD/svg11.dtd">
<!-- Generated by graphviz version 2.38.0 (20140413.2041)
 -->
<!-- Title: models_diagram Pages: 1 -->
<svg width="2403pt" height="957pt"
 viewBox="0.00 0.00 2402.84 957.00" xmlns="http://www.w3.org/2000/svg" xmlns:xlink="http://www.w3.org/1999/xlink">
<g id="graph0" class="graph" transform="scale(1 1) rotate(0) translate(4 953)">
<title>models_diagram</title>
<polygon fill="none" stroke="none" points="-4,4 -4,-953 2398.84,-953 2398.84,4 -4,4"/>
<!-- _diagram_info -->
<g id="node1" class="node"><title>_diagram_info</title>
<text text-anchor="start" x="8" y="-800.1" font-family="Times,serif" font-size="13.00">Models diagram</text>
<text text-anchor="start" x="8" y="-786.1" font-family="Times,serif" font-size="13.00">Date: Mar 08 2016 &#45; 13:02</text>
<text text-anchor="start" x="8" y="-772.1" font-family="Times,serif" font-size="13.00">Migration version: 20151229071056</text>
<text text-anchor="start" x="8" y="-758.1" font-family="Times,serif" font-size="13.00">Generated by RailRoady 1.4.2</text>
<text text-anchor="start" x="8" y="-744.1" font-family="Times,serif" font-size="13.00">http://railroady.prestonlee.com</text>
</g>
<!-- Settings -->
<g id="node2" class="node"><title>Settings</title>
<polygon fill="none" stroke="black" points="232,-752.5 232,-798.5 292,-798.5 292,-752.5 232,-752.5"/>
<text text-anchor="middle" x="262" y="-783.3" font-family="Times,serif" font-size="14.00">Settings</text>
<polyline fill="none" stroke="black" points="232,-775.5 292,-775.5 "/>
<text text-anchor="middle" x="262" y="-760.3" font-family="Times,serif" font-size="14.00"> </text>
</g>
<!-- Merkmalklasse -->
<g id="node3" class="node"><title>Merkmalklasse</title>
<path fill="none" stroke="black" d="M135,-249.5C135,-249.5 355,-249.5 355,-249.5 361,-249.5 367,-255.5 367,-261.5 367,-261.5 367,-463.5 367,-463.5 367,-469.5 361,-475.5 355,-475.5 355,-475.5 135,-475.5 135,-475.5 129,-475.5 123,-469.5 123,-463.5 123,-463.5 123,-261.5 123,-261.5 123,-255.5 129,-249.5 135,-249.5"/>
<text text-anchor="middle" x="245" y="-460.3" font-family="Times,serif" font-size="14.00">Merkmalklasse</text>
<polyline fill="none" stroke="black" points="123,-452.5 367,-452.5 "/>
<text text-anchor="start" x="131" y="-437.3" font-family="Times,serif" font-size="14.00">id :integer</text>
<text text-anchor="start" x="131" y="-422.3" font-family="Times,serif" font-size="14.00">name :character varying(255)</text>
<text text-anchor="start" x="131" y="-407.3" font-family="Times,serif" font-size="14.00">description :text</text>
<text text-anchor="start" x="131" y="-392.3" font-family="Times,serif" font-size="14.00">format :character varying(255)</text>
<text text-anchor="start" x="131" y="-377.3" font-family="Times,serif" font-size="14.00">possible_values :text</text>
<text text-anchor="start" x="131" y="-362.3" font-family="Times,serif" font-size="14.00">created_at :timestamp without time zone</text>
<text text-anchor="start" x="131" y="-347.3" font-family="Times,serif" font-size="14.00">updated_at :timestamp without time zone</text>
<text text-anchor="start" x="131" y="-332.3" font-family="Times,serif" font-size="14.00">mandantory :boolean</text>
<text text-anchor="start" x="131" y="-317.3" font-family="Times,serif" font-size="14.00">unique :boolean</text>
<text text-anchor="start" x="131" y="-302.3" font-family="Times,serif" font-size="14.00">position :integer</text>
<text text-anchor="start" x="131" y="-287.3" font-family="Times,serif" font-size="14.00">for_object :character varying(255)</text>
<text text-anchor="start" x="131" y="-272.3" font-family="Times,serif" font-size="14.00">visible :character varying(255)</text>
<text text-anchor="start" x="131" y="-257.3" font-family="Times,serif" font-size="14.00">baselink :character varying(255)</text>
</g>
<!-- Merkmal -->
<g id="node4" class="node"><title>Merkmal</title>
<path fill="none" stroke="black" d="M435,-0.5C435,-0.5 655,-0.5 655,-0.5 661,-0.5 667,-6.5 667,-12.5 667,-12.5 667,-124.5 667,-124.5 667,-130.5 661,-136.5 655,-136.5 655,-136.5 435,-136.5 435,-136.5 429,-136.5 423,-130.5 423,-124.5 423,-124.5 423,-12.5 423,-12.5 423,-6.5 429,-0.5 435,-0.5"/>
<text text-anchor="middle" x="545" y="-121.3" font-family="Times,serif" font-size="14.00">Merkmal</text>
<polyline fill="none" stroke="black" points="423,-113.5 667,-113.5 "/>
<text text-anchor="start" x="431" y="-98.3" font-family="Times,serif" font-size="14.00">id :integer</text>
<text text-anchor="start" x="431" y="-83.3" font-family="Times,serif" font-size="14.00">merkmalfor_id :integer</text>
<text text-anchor="start" x="431" y="-68.3" font-family="Times,serif" font-size="14.00">merkmalfor_type :character varying(255)</text>
<text text-anchor="start" x="431" y="-53.3" font-family="Times,serif" font-size="14.00">merkmalklasse_id :integer</text>
<text text-anchor="start" x="431" y="-38.3" font-family="Times,serif" font-size="14.00">value :character varying(255)</text>
<text text-anchor="start" x="431" y="-23.3" font-family="Times,serif" font-size="14.00">created_at :timestamp without time zone</text>
<text text-anchor="start" x="431" y="-8.3" font-family="Times,serif" font-size="14.00">updated_at :timestamp without time zone</text>
</g>
<!-- Merkmalklasse&#45;&gt;Merkmal -->
<g id="edge1" class="edge"><title>Merkmalklasse&#45;&gt;Merkmal</title>
<path fill="none" stroke="#4e4f8f" d="M308.695,-242.484C329.001,-211.502 353.454,-179.875 381,-155 391.068,-145.909 402.278,-137.49 413.981,-129.768"/>
<ellipse fill="none" stroke="#4e4f8f" cx="306.331" cy="-246.14" rx="4.00002" ry="4.00002"/>
<polygon fill="#4e4f8f" stroke="#4e4f8f" points="414.155,-129.657 425.005,-128.061 418.368,-126.963 422.58,-124.27 422.58,-124.27 422.58,-124.27 418.368,-126.963 420.156,-120.479 414.155,-129.657 414.155,-129.657"/>
</g>
<!-- LineState -->
<g id="node5" class="node"><title>LineState</title>
<path fill="none" stroke="black" d="M865,-715C865,-715 1085,-715 1085,-715 1091,-715 1097,-721 1097,-727 1097,-727 1097,-824 1097,-824 1097,-830 1091,-836 1085,-836 1085,-836 865,-836 865,-836 859,-836 853,-830 853,-824 853,-824 853,-727 853,-727 853,-721 859,-715 865,-715"/>
<text text-anchor="middle" x="975" y="-820.8" font-family="Times,serif" font-size="14.00">LineState</text>
<polyline fill="none" stroke="black" points="853,-813 1097,-813 "/>
<text text-anchor="start" x="861" y="-797.8" font-family="Times,serif" font-size="14.00">id :integer</text>
<text text-anchor="start" x="861" y="-782.8" font-family="Times,serif" font-size="14.00">name :character varying</text>
<text text-anchor="start" x="861" y="-767.8" font-family="Times,serif" font-size="14.00">description :text</text>
<text text-anchor="start" x="861" y="-752.8" font-family="Times,serif" font-size="14.00">active :boolean</text>
<text text-anchor="start" x="861" y="-737.8" font-family="Times,serif" font-size="14.00">created_at :timestamp without time zone</text>
<text text-anchor="start" x="861" y="-722.8" font-family="Times,serif" font-size="14.00">updated_at :timestamp without time zone</text>
</g>
<!-- Line -->
<g id="node16" class="node"><title>Line</title>
<path fill="none" stroke="black" d="M997,-174.5C997,-174.5 1217,-174.5 1217,-174.5 1223,-174.5 1229,-180.5 1229,-186.5 1229,-186.5 1229,-538.5 1229,-538.5 1229,-544.5 1223,-550.5 1217,-550.5 1217,-550.5 997,-550.5 997,-550.5 991,-550.5 985,-544.5 985,-538.5 985,-538.5 985,-186.5 985,-186.5 985,-180.5 991,-174.5 997,-174.5"/>
<text text-anchor="middle" x="1107" y="-535.3" font-family="Times,serif" font-size="14.00">Line</text>
<polyline fill="none" stroke="black" points="985,-527.5 1229,-527.5 "/>
<text text-anchor="start" x="993" y="-512.3" font-family="Times,serif" font-size="14.00">id :integer</text>
<text text-anchor="start" x="993" y="-497.3" font-family="Times,serif" font-size="14.00">name :character varying</text>
<text text-anchor="start" x="993" y="-482.3" font-family="Times,serif" font-size="14.00">description :text</text>
<text text-anchor="start" x="993" y="-467.3" font-family="Times,serif" font-size="14.00">provider_id :character varying</text>
<text text-anchor="start" x="993" y="-452.3" font-family="Times,serif" font-size="14.00">location_a_id :integer</text>
<text text-anchor="start" x="993" y="-437.3" font-family="Times,serif" font-size="14.00">location_b_id :integer</text>
<text text-anchor="start" x="993" y="-422.3" font-family="Times,serif" font-size="14.00">access_type_id :integer</text>
<text text-anchor="start" x="993" y="-407.3" font-family="Times,serif" font-size="14.00">bw_upstream :numeric(10,1)</text>
<text text-anchor="start" x="993" y="-392.3" font-family="Times,serif" font-size="14.00">bw_downstream :numeric(10,1)</text>
<text text-anchor="start" x="993" y="-377.3" font-family="Times,serif" font-size="14.00">framework_contract_id :integer</text>
<text text-anchor="start" x="993" y="-362.3" font-family="Times,serif" font-size="14.00">contract_start :date</text>
<text text-anchor="start" x="993" y="-347.3" font-family="Times,serif" font-size="14.00">contract_end :date</text>
<text text-anchor="start" x="993" y="-332.3" font-family="Times,serif" font-size="14.00">contract_period :character varying</text>
<text text-anchor="start" x="993" y="-317.3" font-family="Times,serif" font-size="14.00">period_of_notice :integer</text>
<text text-anchor="start" x="993" y="-302.3" font-family="Times,serif" font-size="14.00">period_of_notice_unit :character varying</text>
<text text-anchor="start" x="993" y="-287.3" font-family="Times,serif" font-size="14.00">renewal_period :integer</text>
<text text-anchor="start" x="993" y="-272.3" font-family="Times,serif" font-size="14.00">renewal_unit :character varying</text>
<text text-anchor="start" x="993" y="-257.3" font-family="Times,serif" font-size="14.00">line_state_id :integer</text>
<text text-anchor="start" x="993" y="-242.3" font-family="Times,serif" font-size="14.00">created_at :timestamp without time zone</text>
<text text-anchor="start" x="993" y="-227.3" font-family="Times,serif" font-size="14.00">updated_at :timestamp without time zone</text>
<text text-anchor="start" x="993" y="-212.3" font-family="Times,serif" font-size="14.00">bw2_upstream :numeric(10,1)</text>
<text text-anchor="start" x="993" y="-197.3" font-family="Times,serif" font-size="14.00">bw2_downstream :numeric(10,1)</text>
<text text-anchor="start" x="993" y="-182.3" font-family="Times,serif" font-size="14.00">notes :text</text>
</g>
<!-- LineState&#45;&gt;Line -->
<g id="edge2" class="edge"><title>LineState&#45;&gt;Line</title>
<path fill="none" stroke="#8f7345" d="M996.703,-706.926C1009.64,-666.654 1026.79,-613.256 1043.7,-560.595"/>
<ellipse fill="none" stroke="#8f7345" cx="995.417" cy="-710.929" rx="4.00001" ry="4.00001"/>
<polygon fill="#8f7345" stroke="#8f7345" points="1043.8,-560.295 1051.14,-552.15 1045.32,-555.535 1046.85,-550.774 1046.85,-550.774 1046.85,-550.774 1045.32,-555.535 1042.57,-549.398 1043.8,-560.295 1043.8,-560.295"/>
</g>
<!-- FrameworkContract -->
<g id="node6" class="node"><title>FrameworkContract</title>
<path fill="none" stroke="black" d="M1127,-662.5C1127,-662.5 1347,-662.5 1347,-662.5 1353,-662.5 1359,-668.5 1359,-674.5 1359,-674.5 1359,-876.5 1359,-876.5 1359,-882.5 1353,-888.5 1347,-888.5 1347,-888.5 1127,-888.5 1127,-888.5 1121,-888.5 1115,-882.5 1115,-876.5 1115,-876.5 1115,-674.5 1115,-674.5 1115,-668.5 1121,-662.5 1127,-662.5"/>
<text text-anchor="middle" x="1237" y="-873.3" font-family="Times,serif" font-size="14.00">FrameworkContract</text>
<polyline fill="none" stroke="black" points="1115,-865.5 1359,-865.5 "/>
<text text-anchor="start" x="1123" y="-850.3" font-family="Times,serif" font-size="14.00">id :integer</text>
<text text-anchor="start" x="1123" y="-835.3" font-family="Times,serif" font-size="14.00">name :character varying</text>
<text text-anchor="start" x="1123" y="-820.3" font-family="Times,serif" font-size="14.00">description :text</text>
<text text-anchor="start" x="1123" y="-805.3" font-family="Times,serif" font-size="14.00">contract_start :date</text>
<text text-anchor="start" x="1123" y="-790.3" font-family="Times,serif" font-size="14.00">contract_end :date</text>
<text text-anchor="start" x="1123" y="-775.3" font-family="Times,serif" font-size="14.00">contract_period :character varying</text>
<text text-anchor="start" x="1123" y="-760.3" font-family="Times,serif" font-size="14.00">period_of_notice :integer</text>
<text text-anchor="start" x="1123" y="-745.3" font-family="Times,serif" font-size="14.00">period_of_notice_unit :character varying</text>
<text text-anchor="start" x="1123" y="-730.3" font-family="Times,serif" font-size="14.00">renewal_period :integer</text>
<text text-anchor="start" x="1123" y="-715.3" font-family="Times,serif" font-size="14.00">renewal_unit :character varying</text>
<text text-anchor="start" x="1123" y="-700.3" font-family="Times,serif" font-size="14.00">active :boolean</text>
<text text-anchor="start" x="1123" y="-685.3" font-family="Times,serif" font-size="14.00">created_at :timestamp without time zone</text>
<text text-anchor="start" x="1123" y="-670.3" font-family="Times,serif" font-size="14.00">updated_at :timestamp without time zone</text>
</g>
<!-- FrameworkContract&#45;&gt;Line -->
<g id="edge3" class="edge"><title>FrameworkContract&#45;&gt;Line</title>
<path fill="none" stroke="#a61f0c" d="M1199.1,-654.692C1189.72,-625.015 1179.41,-592.433 1169.2,-560.143"/>
<ellipse fill="none" stroke="#a61f0c" cx="1200.36" cy="-658.65" rx="4.00001" ry="4.00001"/>
<polygon fill="#a61f0c" stroke="#a61f0c" points="1169.19,-560.127 1170.47,-549.236 1167.69,-555.36 1166.18,-550.593 1166.18,-550.593 1166.18,-550.593 1167.69,-555.36 1161.89,-551.95 1169.19,-560.127 1169.19,-560.127"/>
</g>
<!-- OperatingSystem -->
<g id="node7" class="node"><title>OperatingSystem</title>
<polygon fill="none" stroke="black" points="1639.5,-752.5 1639.5,-798.5 1750.5,-798.5 1750.5,-752.5 1639.5,-752.5"/>
<text text-anchor="middle" x="1695" y="-783.3" font-family="Times,serif" font-size="14.00">OperatingSystem</text>
<polyline fill="none" stroke="black" points="1639.5,-775.5 1750.5,-775.5 "/>
<text text-anchor="middle" x="1695" y="-760.3" font-family="Times,serif" font-size="14.00"> </text>
</g>
<!-- AccessType -->
<g id="node8" class="node"><title>AccessType</title>
<path fill="none" stroke="black" d="M1389,-722.5C1389,-722.5 1609,-722.5 1609,-722.5 1615,-722.5 1621,-728.5 1621,-734.5 1621,-734.5 1621,-816.5 1621,-816.5 1621,-822.5 1615,-828.5 1609,-828.5 1609,-828.5 1389,-828.5 1389,-828.5 1383,-828.5 1377,-822.5 1377,-816.5 1377,-816.5 1377,-734.5 1377,-734.5 1377,-728.5 1383,-722.5 1389,-722.5"/>
<text text-anchor="middle" x="1499" y="-813.3" font-family="Times,serif" font-size="14.00">AccessType</text>
<polyline fill="none" stroke="black" points="1377,-805.5 1621,-805.5 "/>
<text text-anchor="start" x="1385" y="-790.3" font-family="Times,serif" font-size="14.00">id :integer</text>
<text text-anchor="start" x="1385" y="-775.3" font-family="Times,serif" font-size="14.00">name :character varying</text>
<text text-anchor="start" x="1385" y="-760.3" font-family="Times,serif" font-size="14.00">description :text</text>
<text text-anchor="start" x="1385" y="-745.3" font-family="Times,serif" font-size="14.00">created_at :timestamp without time zone</text>
<text text-anchor="start" x="1385" y="-730.3" font-family="Times,serif" font-size="14.00">updated_at :timestamp without time zone</text>
</g>
<!-- AccessType&#45;&gt;Line -->
<g id="edge4" class="edge"><title>AccessType&#45;&gt;Line</title>
<path fill="none" stroke="#98f1fb" d="M1458.36,-715.636C1433.67,-681.283 1400.68,-637.799 1368,-602 1327.6,-557.756 1280.07,-512.581 1236.72,-473.615"/>
<ellipse fill="none" stroke="#98f1fb" cx="1460.86" cy="-719.127" rx="4.00002" ry="4.00002"/>
<polygon fill="#98f1fb" stroke="#98f1fb" points="1236.69,-473.588 1232.24,-463.564 1232.96,-470.252 1229.24,-466.916 1229.24,-466.916 1229.24,-466.916 1232.96,-470.252 1226.24,-470.269 1236.69,-473.588 1236.69,-473.588"/>
</g>
<!-- Address -->
<g id="node9" class="node"><title>Address</title>
<path fill="none" stroke="black" d="M435,-264.5C435,-264.5 655,-264.5 655,-264.5 661,-264.5 667,-270.5 667,-276.5 667,-276.5 667,-448.5 667,-448.5 667,-454.5 661,-460.5 655,-460.5 655,-460.5 435,-460.5 435,-460.5 429,-460.5 423,-454.5 423,-448.5 423,-448.5 423,-276.5 423,-276.5 423,-270.5 429,-264.5 435,-264.5"/>
<text text-anchor="middle" x="545" y="-445.3" font-family="Times,serif" font-size="14.00">Address</text>
<polyline fill="none" stroke="black" points="423,-437.5 667,-437.5 "/>
<text text-anchor="start" x="431" y="-422.3" font-family="Times,serif" font-size="14.00">id :integer</text>
<text text-anchor="start" x="431" y="-407.3" font-family="Times,serif" font-size="14.00">addressfor_id :integer</text>
<text text-anchor="start" x="431" y="-392.3" font-family="Times,serif" font-size="14.00">addressfor_type :character varying(255)</text>
<text text-anchor="start" x="431" y="-377.3" font-family="Times,serif" font-size="14.00">streetaddress :character varying(255)</text>
<text text-anchor="start" x="431" y="-362.3" font-family="Times,serif" font-size="14.00">plz :character varying(255)</text>
<text text-anchor="start" x="431" y="-347.3" font-family="Times,serif" font-size="14.00">ort :character varying(255)</text>
<text text-anchor="start" x="431" y="-332.3" font-family="Times,serif" font-size="14.00">care_of :character varying(255)</text>
<text text-anchor="start" x="431" y="-317.3" font-family="Times,serif" font-size="14.00">postfach :character varying(255)</text>
<text text-anchor="start" x="431" y="-302.3" font-family="Times,serif" font-size="14.00">postfachplz :character varying(255)</text>
<text text-anchor="start" x="431" y="-287.3" font-family="Times,serif" font-size="14.00">created_at :timestamp without time zone</text>
<text text-anchor="start" x="431" y="-272.3" font-family="Times,serif" font-size="14.00">updated_at :timestamp without time zone</text>
</g>
<!-- OrgUnit -->
<g id="node10" class="node"><title>OrgUnit</title>
<path fill="none" stroke="black" d="M322,-700C322,-700 542,-700 542,-700 548,-700 554,-706 554,-712 554,-712 554,-839 554,-839 554,-845 548,-851 542,-851 542,-851 322,-851 322,-851 316,-851 310,-845 310,-839 310,-839 310,-712 310,-712 310,-706 316,-700 322,-700"/>
<text text-anchor="middle" x="432" y="-835.8" font-family="Times,serif" font-size="14.00">OrgUnit</text>
<polyline fill="none" stroke="black" points="310,-828 554,-828 "/>
<text text-anchor="start" x="318" y="-812.8" font-family="Times,serif" font-size="14.00">id :integer</text>
<text text-anchor="start" x="318" y="-797.8" font-family="Times,serif" font-size="14.00">name :character varying(255)</text>
<text text-anchor="start" x="318" y="-782.8" font-family="Times,serif" font-size="14.00">description :character varying(255)</text>
<text text-anchor="start" x="318" y="-767.8" font-family="Times,serif" font-size="14.00">ancestry :character varying(255)</text>
<text text-anchor="start" x="318" y="-752.8" font-family="Times,serif" font-size="14.00">ancestry_depth :integer</text>
<text text-anchor="start" x="318" y="-737.8" font-family="Times,serif" font-size="14.00">position :integer</text>
<text text-anchor="start" x="318" y="-722.8" font-family="Times,serif" font-size="14.00">created_at :timestamp without time zone</text>
<text text-anchor="start" x="318" y="-707.8" font-family="Times,serif" font-size="14.00">updated_at :timestamp without time zone</text>
</g>
<!-- OrgUnit&#45;&gt;Merkmal -->
<g id="edge5" class="edge"><title>OrgUnit&#45;&gt;Merkmal</title>
<path fill="none" stroke="#633a55" d="M420.284,-691.832C401.564,-549.057 371.146,-263.003 414,-174 419.177,-163.249 426.057,-153.26 433.963,-144.066"/>
<ellipse fill="none" stroke="#633a55" cx="420.809" cy="-695.808" rx="4.00001" ry="4.00001"/>
<polygon fill="#633a55" stroke="#633a55" points="434.094,-143.921 444.156,-139.561 437.462,-140.226 440.83,-136.53 440.83,-136.53 440.83,-136.53 437.462,-140.226 437.503,-133.499 434.094,-143.921 434.094,-143.921"/>
</g>
<!-- OrgUnit&#45;&gt;Address -->
<g id="edge6" class="edge"><title>OrgUnit&#45;&gt;Address</title>
<path fill="none" stroke="#b171c7" d="M454.793,-691.598C472.273,-628.021 496.537,-539.768 515.498,-470.803"/>
<ellipse fill="none" stroke="#b171c7" cx="453.655" cy="-695.737" rx="4.00001" ry="4.00001"/>
<polygon fill="#b171c7" stroke="#b171c7" points="515.605,-470.416 522.595,-461.967 516.93,-465.595 518.256,-460.774 518.256,-460.774 518.256,-460.774 516.93,-465.595 513.917,-459.581 515.605,-470.416 515.605,-470.416"/>
</g>
<!-- Ability -->
<g id="node11" class="node"><title>Ability</title>
<polygon fill="none" stroke="black" points="1768.5,-752.5 1768.5,-798.5 1823.5,-798.5 1823.5,-752.5 1768.5,-752.5"/>
<text text-anchor="middle" x="1796" y="-783.3" font-family="Times,serif" font-size="14.00">Ability</text>
<polyline fill="none" stroke="black" points="1768.5,-775.5 1823.5,-775.5 "/>
<text text-anchor="middle" x="1796" y="-760.3" font-family="Times,serif" font-size="14.00"> </text>
</g>
<!-- Wobauth::User -->
<g id="node12" class="node"><title>Wobauth::User</title>
<path fill="none" stroke="black" d="M1853.5,-602.5C1853.5,-602.5 2142.5,-602.5 2142.5,-602.5 2148.5,-602.5 2154.5,-608.5 2154.5,-614.5 2154.5,-614.5 2154.5,-936.5 2154.5,-936.5 2154.5,-942.5 2148.5,-948.5 2142.5,-948.5 2142.5,-948.5 1853.5,-948.5 1853.5,-948.5 1847.5,-948.5 1841.5,-942.5 1841.5,-936.5 1841.5,-936.5 1841.5,-614.5 1841.5,-614.5 1841.5,-608.5 1847.5,-602.5 1853.5,-602.5"/>
<text text-anchor="middle" x="1998" y="-933.3" font-family="Times,serif" font-size="14.00">Wobauth::User</text>
<polyline fill="none" stroke="black" points="1841.5,-925.5 2154.5,-925.5 "/>
<text text-anchor="start" x="1849.5" y="-910.3" font-family="Times,serif" font-size="14.00">id :integer</text>
<text text-anchor="start" x="1849.5" y="-895.3" font-family="Times,serif" font-size="14.00">username :character varying(255)</text>
<text text-anchor="start" x="1849.5" y="-880.3" font-family="Times,serif" font-size="14.00">gruppen :text</text>
<text text-anchor="start" x="1849.5" y="-865.3" font-family="Times,serif" font-size="14.00">sn :character varying(255)</text>
<text text-anchor="start" x="1849.5" y="-850.3" font-family="Times,serif" font-size="14.00">givenname :character varying(255)</text>
<text text-anchor="start" x="1849.5" y="-835.3" font-family="Times,serif" font-size="14.00">displayname :character varying(255)</text>
<text text-anchor="start" x="1849.5" y="-820.3" font-family="Times,serif" font-size="14.00">telephone :character varying(255)</text>
<text text-anchor="start" x="1849.5" y="-805.3" font-family="Times,serif" font-size="14.00">active_directory_guid :character varying(255)</text>
<text text-anchor="start" x="1849.5" y="-790.3" font-family="Times,serif" font-size="14.00">userprincipalname :character varying(255)</text>
<text text-anchor="start" x="1849.5" y="-775.3" font-family="Times,serif" font-size="14.00">email :character varying(255)</text>
<text text-anchor="start" x="1849.5" y="-760.3" font-family="Times,serif" font-size="14.00">encrypted_password :character varying(255)</text>
<text text-anchor="start" x="1849.5" y="-745.3" font-family="Times,serif" font-size="14.00">reset_password_token :character varying(255)</text>
<text text-anchor="start" x="1849.5" y="-730.3" font-family="Times,serif" font-size="14.00">reset_password_sent_at :timestamp without time zone</text>
<text text-anchor="start" x="1849.5" y="-715.3" font-family="Times,serif" font-size="14.00">remember_created_at :timestamp without time zone</text>
<text text-anchor="start" x="1849.5" y="-700.3" font-family="Times,serif" font-size="14.00">sign_in_count :integer</text>
<text text-anchor="start" x="1849.5" y="-685.3" font-family="Times,serif" font-size="14.00">current_sign_in_at :timestamp without time zone</text>
<text text-anchor="start" x="1849.5" y="-670.3" font-family="Times,serif" font-size="14.00">last_sign_in_at :timestamp without time zone</text>
<text text-anchor="start" x="1849.5" y="-655.3" font-family="Times,serif" font-size="14.00">current_sign_in_ip :character varying(255)</text>
<text text-anchor="start" x="1849.5" y="-640.3" font-family="Times,serif" font-size="14.00">last_sign_in_ip :character varying(255)</text>
<text text-anchor="start" x="1849.5" y="-625.3" font-family="Times,serif" font-size="14.00">created_at :timestamp without time zone</text>
<text text-anchor="start" x="1849.5" y="-610.3" font-family="Times,serif" font-size="14.00">updated_at :timestamp without time zone</text>
</g>
<!-- Wobauth::Authority -->
<g id="node18" class="node"><title>Wobauth::Authority</title>
<ellipse fill="none" stroke="black" cx="1799" cy="-362.5" rx="82.5854" ry="18"/>
<text text-anchor="middle" x="1799" y="-358.8" font-family="Times,serif" font-size="14.00">Wobauth::Authority</text>
</g>
<!-- Wobauth::User&#45;&gt;Wobauth::Authority -->
<g id="edge7" class="edge"><title>Wobauth::User&#45;&gt;Wobauth::Authority</title>
<path fill="none" stroke="#00043b" d="M1911.12,-595.071C1872.71,-515.726 1831.74,-431.112 1811.63,-389.576"/>
<ellipse fill="none" stroke="#00043b" cx="1912.87" cy="-598.683" rx="4.00002" ry="4.00002"/>
<polygon fill="#00043b" stroke="#00043b" points="1811.56,-389.443 1811.25,-378.481 1809.38,-384.942 1807.2,-380.442 1807.2,-380.442 1807.2,-380.442 1809.38,-384.942 1803.15,-382.403 1811.56,-389.443 1811.56,-389.443"/>
</g>
<!-- Wobauth::Role -->
<g id="node19" class="node"><title>Wobauth::Role</title>
<ellipse fill="none" stroke="black" cx="1965" cy="-362.5" rx="64.9885" ry="18"/>
<text text-anchor="middle" x="1965" y="-358.8" font-family="Times,serif" font-size="14.00">Wobauth::Role</text>
</g>
<!-- Wobauth::User&#45;&gt;Wobauth::Role -->
<g id="edge8" class="edge"><title>Wobauth::User&#45;&gt;Wobauth::Role</title>
<path fill="none" stroke="#723f72" d="M1979.69,-592.279C1979.45,-589.501 1979.22,-586.739 1979,-584 1973.33,-514.512 1968.65,-432.544 1966.42,-390.846"/>
<polygon fill="#723f72" stroke="#723f72" points="1979.7,-592.446 1976.07,-602.793 1980.13,-597.428 1980.55,-602.41 1980.55,-602.41 1980.55,-602.41 1980.13,-597.428 1985.04,-602.026 1979.7,-592.446 1979.7,-592.446"/>
<polygon fill="#723f72" stroke="#723f72" points="1966.41,-390.656 1970.37,-380.431 1966.14,-385.663 1965.88,-380.67 1965.88,-380.67 1965.88,-380.67 1966.14,-385.663 1961.39,-380.908 1966.41,-390.656 1966.41,-390.656"/>
</g>
<!-- Wobauth::User&#45;&gt;Wobauth::Role -->
<g id="edge10" class="edge"><title>Wobauth::User&#45;&gt;Wobauth::Role</title>
<path fill="none" stroke="#94795f" d="M1983.37,-592.254C1977.13,-514.528 1970.52,-432.307 1967.2,-390.838"/>
<polygon fill="#94795f" stroke="#94795f" points="1983.37,-592.315 1979.69,-602.643 1983.77,-597.299 1984.17,-602.283 1984.17,-602.283 1984.17,-602.283 1983.77,-597.299 1988.66,-601.923 1983.37,-592.315 1983.37,-592.315"/>
<polygon fill="#94795f" stroke="#94795f" points="1967.18,-390.698 1970.87,-380.37 1966.78,-385.714 1966.38,-380.73 1966.38,-380.73 1966.38,-380.73 1966.78,-385.714 1961.9,-381.09 1967.18,-390.698 1967.18,-390.698"/>
<text text-anchor="middle" x="2014.5" y="-572.8" font-family="Times,serif" font-size="14.00">group_roles</text>
</g>
<!-- Wobauth::Membership -->
<g id="node20" class="node"><title>Wobauth::Membership</title>
<ellipse fill="none" stroke="black" cx="2142" cy="-362.5" rx="93.6835" ry="18"/>
<text text-anchor="middle" x="2142" y="-358.8" font-family="Times,serif" font-size="14.00">Wobauth::Membership</text>
</g>
<!-- Wobauth::User&#45;&gt;Wobauth::Membership -->
<g id="edge9" class="edge"><title>Wobauth::User&#45;&gt;Wobauth::Membership</title>
<path fill="none" stroke="#fe669e" d="M2061.04,-594.574C2088.6,-515.899 2117.95,-432.145 2132.57,-390.407"/>
<ellipse fill="none" stroke="#fe669e" cx="2059.66" cy="-598.508" rx="4.00001" ry="4.00001"/>
<polygon fill="#fe669e" stroke="#fe669e" points="2132.66,-390.167 2140.21,-382.218 2134.31,-385.449 2135.96,-380.73 2135.96,-380.73 2135.96,-380.73 2134.31,-385.449 2131.72,-379.242 2132.66,-390.167 2132.66,-390.167"/>
</g>
<!-- Wobauth::Group -->
<g id="node21" class="node"><title>Wobauth::Group</title>
<ellipse fill="none" stroke="black" cx="2324" cy="-362.5" rx="70.6878" ry="18"/>
<text text-anchor="middle" x="2324" y="-358.8" font-family="Times,serif" font-size="14.00">Wobauth::Group</text>
</g>
<!-- Wobauth::User&#45;&gt;Wobauth::Group -->
<g id="edge11" class="edge"><title>Wobauth::User&#45;&gt;Wobauth::Group</title>
<path fill="none" stroke="#6fef96" d="M2162.56,-603.172C2163.04,-602.78 2163.52,-602.389 2164,-602 2196.99,-575.143 2217.47,-583.433 2245,-551 2286.06,-502.631 2308.39,-429.835 2318.06,-390.7"/>
<polygon fill="#6fef96" stroke="#6fef96" points="2162.5,-603.228 2151.93,-606.171 2158.66,-606.428 2154.81,-609.629 2154.81,-609.629 2154.81,-609.629 2158.66,-606.428 2157.69,-613.086 2162.5,-603.228 2162.5,-603.228"/>
<polygon fill="#6fef96" stroke="#6fef96" points="2318.15,-390.332 2324.84,-381.642 2319.31,-385.467 2320.46,-380.602 2320.46,-380.602 2320.46,-380.602 2319.31,-385.467 2316.08,-379.563 2318.15,-390.332 2318.15,-390.332"/>
</g>
<!-- Location -->
<g id="node13" class="node"><title>Location</title>
<path fill="none" stroke="black" d="M603,-692.5C603,-692.5 823,-692.5 823,-692.5 829,-692.5 835,-698.5 835,-704.5 835,-704.5 835,-846.5 835,-846.5 835,-852.5 829,-858.5 823,-858.5 823,-858.5 603,-858.5 603,-858.5 597,-858.5 591,-852.5 591,-846.5 591,-846.5 591,-704.5 591,-704.5 591,-698.5 597,-692.5 603,-692.5"/>
<text text-anchor="middle" x="713" y="-843.3" font-family="Times,serif" font-size="14.00">Location</text>
<polyline fill="none" stroke="black" points="591,-835.5 835,-835.5 "/>
<text text-anchor="start" x="599" y="-820.3" font-family="Times,serif" font-size="14.00">id :integer</text>
<text text-anchor="start" x="599" y="-805.3" font-family="Times,serif" font-size="14.00">name :character varying(255)</text>
<text text-anchor="start" x="599" y="-790.3" font-family="Times,serif" font-size="14.00">description :character varying(255)</text>
<text text-anchor="start" x="599" y="-775.3" font-family="Times,serif" font-size="14.00">ancestry :character varying(255)</text>
<text text-anchor="start" x="599" y="-760.3" font-family="Times,serif" font-size="14.00">ancestry_depth :integer</text>
<text text-anchor="start" x="599" y="-745.3" font-family="Times,serif" font-size="14.00">position :integer</text>
<text text-anchor="start" x="599" y="-730.3" font-family="Times,serif" font-size="14.00">created_at :timestamp without time zone</text>
<text text-anchor="start" x="599" y="-715.3" font-family="Times,serif" font-size="14.00">updated_at :timestamp without time zone</text>
<text text-anchor="start" x="599" y="-700.3" font-family="Times,serif" font-size="14.00">lid :character varying(255)</text>
</g>
<!-- Location&#45;&gt;Merkmal -->
<g id="edge12" class="edge"><title>Location&#45;&gt;Merkmal</title>
<path fill="none" stroke="#0889de" d="M711.453,-684.057C708.181,-527.399 698.886,-218.014 676,-174 670.443,-163.312 663.256,-153.348 655.112,-144.153"/>
<ellipse fill="none" stroke="#0889de" cx="711.541" cy="-688.318" rx="4" ry="4"/>
<polygon fill="#0889de" stroke="#0889de" points="654.891,-143.916 651.349,-133.538 651.476,-140.263 648.062,-136.611 648.062,-136.611 648.062,-136.611 651.476,-140.263 644.774,-139.684 654.891,-143.916 654.891,-143.916"/>
</g>
<!-- Location&#45;&gt;Address -->
<g id="edge13" class="edge"><title>Location&#45;&gt;Address</title>
<path fill="none" stroke="#3f4453" d="M676.323,-684.772C650.484,-621.558 615.777,-536.651 588.533,-470"/>
<ellipse fill="none" stroke="#3f4453" cx="677.893" cy="-688.613" rx="4.00001" ry="4.00001"/>
<polygon fill="#3f4453" stroke="#3f4453" points="588.523,-469.977 588.905,-459.018 586.632,-465.349 584.74,-460.72 584.74,-460.72 584.74,-460.72 586.632,-465.349 580.574,-462.423 588.523,-469.977 588.523,-469.977"/>
</g>
<!-- Network -->
<g id="node14" class="node"><title>Network</title>
<path fill="none" stroke="black" d="M735,-302C735,-302 955,-302 955,-302 961,-302 967,-308 967,-314 967,-314 967,-411 967,-411 967,-417 961,-423 955,-423 955,-423 735,-423 735,-423 729,-423 723,-417 723,-411 723,-411 723,-314 723,-314 723,-308 729,-302 735,-302"/>
<text text-anchor="middle" x="845" y="-407.8" font-family="Times,serif" font-size="14.00">Network</text>
<polyline fill="none" stroke="black" points="723,-400 967,-400 "/>
<text text-anchor="start" x="731" y="-384.8" font-family="Times,serif" font-size="14.00">id :integer</text>
<text text-anchor="start" x="731" y="-369.8" font-family="Times,serif" font-size="14.00">location_id :integer</text>
<text text-anchor="start" x="731" y="-354.8" font-family="Times,serif" font-size="14.00">netzwerk :cidr</text>
<text text-anchor="start" x="731" y="-339.8" font-family="Times,serif" font-size="14.00">description :text</text>
<text text-anchor="start" x="731" y="-324.8" font-family="Times,serif" font-size="14.00">created_at :timestamp without time zone</text>
<text text-anchor="start" x="731" y="-309.8" font-family="Times,serif" font-size="14.00">updated_at :timestamp without time zone</text>
</g>
<!-- Location&#45;&gt;Network -->
<g id="edge14" class="edge"><title>Location&#45;&gt;Network</title>
<path fill="none" stroke="#1c2b9d" d="M732.682,-684.206C741.263,-648.08 752.087,-606.272 764,-569 778.754,-522.84 798.679,-472.178 815.075,-432.706"/>
<ellipse fill="none" stroke="#1c2b9d" cx="731.692" cy="-688.407" rx="4.00001" ry="4.00001"/>
<polygon fill="#1c2b9d" stroke="#1c2b9d" points="815.093,-432.664 823.099,-425.17 817.019,-428.05 818.946,-423.436 818.946,-423.436 818.946,-423.436 817.019,-428.05 814.794,-421.702 815.093,-432.664 815.093,-432.664"/>
</g>
<!-- Location&#45;&gt;Line -->
<g id="edge15" class="edge"><title>Location&#45;&gt;Line</title>
<path fill="none" stroke="#910725" d="M742.468,-684.814C760.94,-642.852 789.154,-596.227 830,-569 884.402,-532.737 919.984,-584.716 976,-551 976.09,-550.946 976.181,-550.891 976.271,-550.837"/>
<ellipse fill="none" stroke="#910725" cx="740.824" cy="-688.641" rx="4.00002" ry="4.00002"/>
<polygon fill="#910725" stroke="#910725" points="976.127,-550.929 986.97,-549.295 980.33,-548.221 984.533,-545.513 984.533,-545.513 984.533,-545.513 980.33,-548.221 982.095,-541.73 976.127,-550.929 976.127,-550.929"/>
<text text-anchor="middle" x="849.5" y="-572.8" font-family="Times,serif" font-size="14.00">lines_a</text>
</g>
<!-- Location&#45;&gt;Line -->
<g id="edge16" class="edge"><title>Location&#45;&gt;Line</title>
<path fill="none" stroke="#f11c4d" d="M766.21,-685.534C787.419,-655.838 813.967,-624.595 844,-602 894.258,-564.189 926.502,-589.8 976,-551 976.278,-550.782 976.556,-550.563 976.834,-550.343"/>
<ellipse fill="none" stroke="#f11c4d" cx="763.793" cy="-688.969" rx="4.00002" ry="4.00002"/>
<polygon fill="#f11c4d" stroke="#f11c4d" points="977.078,-550.142 987.653,-547.24 980.932,-546.956 984.786,-543.771 984.786,-543.771 984.786,-543.771 980.932,-546.956 981.919,-540.302 977.078,-550.142 977.078,-550.142"/>
<text text-anchor="middle" x="963" y="-572.8" font-family="Times,serif" font-size="14.00">lines_b</text>
</g>
<!-- Network&#45;&gt;Merkmal -->
<g id="edge17" class="edge"><title>Network&#45;&gt;Merkmal</title>
<path fill="none" stroke="#04bb4f" d="M812.391,-294.557C788.465,-250.685 752.609,-194.381 709,-155 698.932,-145.909 687.722,-137.49 676.019,-129.768"/>
<ellipse fill="none" stroke="#04bb4f" cx="814.378" cy="-298.242" rx="4.00002" ry="4.00002"/>
<polygon fill="#04bb4f" stroke="#04bb4f" points="675.845,-129.657 669.844,-120.479 671.632,-126.963 667.42,-124.27 667.42,-124.27 667.42,-124.27 671.632,-126.963 664.995,-128.061 675.845,-129.657 675.845,-129.657"/>
</g>
<!-- Ipaddress -->
<g id="node15" class="node"><title>Ipaddress</title>
<polygon fill="none" stroke="black" points="2173,-752.5 2173,-798.5 2241,-798.5 2241,-752.5 2173,-752.5"/>
<text text-anchor="middle" x="2207" y="-783.3" font-family="Times,serif" font-size="14.00">Ipaddress</text>
<polyline fill="none" stroke="black" points="2173,-775.5 2241,-775.5 "/>
<text text-anchor="middle" x="2207" y="-760.3" font-family="Times,serif" font-size="14.00"> </text>
</g>
<!-- Host -->
<g id="node17" class="node"><title>Host</title>
<polygon fill="none" stroke="black" points="2259,-752.5 2259,-798.5 2313,-798.5 2313,-752.5 2259,-752.5"/>
<text text-anchor="middle" x="2286" y="-783.3" font-family="Times,serif" font-size="14.00">Host</text>
<polyline fill="none" stroke="black" points="2259,-775.5 2313,-775.5 "/>
<text text-anchor="middle" x="2286" y="-760.3" font-family="Times,serif" font-size="14.00"> </text>
</g>
</g>
</svg>
